Coordinates
version=1
nRows=38
nColumns=38
inDegrees=no

Units are S.I. units (second, meters, Newtons, ...)
If the header above contains a line with 'inDegrees', this indicates whether rotational values are in degrees (yes) or radians (no).

endheader
time	pelvis_tilt	pelvis_list	pelvis_rotation	pelvis_tx	pelvis_ty	pelvis_tz	hip_flexion_r	hip_adduction_r	hip_rotation_r	knee_angle_r	ankle_angle_r	subtalar_angle_r	mtp_angle_r	hip_flexion_l	hip_adduction_l	hip_rotation_l	knee_angle_l	ankle_angle_l	subtalar_angle_l	mtp_angle_l	lumbar_extension	lumbar_bending	lumbar_rotation	arm_flex_r	arm_add_r	arm_rot_r	elbow_flex_r	pro_sup_r	wrist_flex_r	wrist_dev_r	arm_flex_l	arm_add_l	arm_rot_l	elbow_flex_l	pro_sup_l	wrist_flex_l	wrist_dev_l
30	0.201755	1.22883	1.47792	0.704041	0.108528	0.930577	0.940971	0.0297788	0.0662035	0.919477	-0.0671538	0	0	0.929667	-0.182185	-0.0437606	1.08635	-0.079051	0	0	-0.493026	0.0178598	-0.0325931	0.564238	-0.413052	1.17091	0.529697	0.51949	0	0	0.274168	-0.299431	0.154296	0.561962	1.24506	0	0
30.01	0.202079	1.2322	1.47697	0.703667	0.110009	0.935183	0.926664	0.0293819	0.0663116	0.902994	-0.0758561	0	0	0.913991	-0.183369	-0.0509014	1.06855	-0.0856847	0	0	-0.485959	0.0183248	-0.0340264	0.56457	-0.414104	1.18294	0.531298	0.515911	0	0	0.267286	-0.301074	0.155558	0.563982	1.24271	0	0
30.02	0.203178	1.23578	1.47522	0.70329	0.111544	0.939799	0.911918	0.0291779	0.0663191	0.886244	-0.0844519	0	0	0.898278	-0.184656	-0.0577773	1.05108	-0.0925839	0	0	-0.478679	0.0190661	-0.0353642	0.564915	-0.415378	1.19503	0.533422	0.513744	0	0	0.260104	-0.302557	0.156876	0.565814	1.24126	0	0
30.03	0.205024	1.2397	1.4728	0.702889	0.113123	0.944428	0.896715	0.0290246	0.0661337	0.869456	-0.0928576	0	0	0.882468	-0.185638	-0.0637629	1.03402	-0.0995773	0	0	-0.471415	0.0200954	-0.0367316	0.565472	-0.416606	1.20661	0.535537	0.512819	0	0	0.252891	-0.303915	0.15837	0.567319	1.23983	0	0
30.04	0.20688	1.24361	1.47031	0.702472	0.114742	0.949032	0.881362	0.0287436	0.0656887	0.852486	-0.100871	0	0	0.866472	-0.186657	-0.0699653	1.01687	-0.106532	0	0	-0.463891	0.0212146	-0.0382183	0.566224	-0.417498	1.21832	0.536996	0.514272	0	0	0.245447	-0.30523	0.159752	0.56891	1.23819	0	0
30.05	0.207732	1.24709	1.46831	0.702122	0.116456	0.95355	0.866322	0.0286453	0.0657872	0.835259	-0.10853	0	0	0.850323	-0.188631	-0.0785134	0.999239	-0.113463	0	0	-0.455606	0.0218949	-0.0396576	0.567209	-0.417826	1.23102	0.537643	0.519101	0	0	0.237515	-0.306473	0.160607	0.57049	1.23631	0	0
30.06	0.207536	1.25024	1.4666	0.701844	0.118324	0.957956	0.851396	0.0288589	0.066626	0.81776	-0.115546	0	0	0.83388	-0.192029	-0.0904302	0.981397	-0.120169	0	0	-0.446592	0.0220443	-0.0406936	0.568344	-0.418116	1.24534	0.538357	0.526794	0	0	0.229144	-0.307586	0.161265	0.571791	1.2344	0	0
30.07	0.208911	1.25506	1.46411	0.70144	0.120198	0.962519	0.834157	0.0285305	0.0666038	0.799469	-0.123967	0	0	0.815935	-0.194671	-0.101079	0.963716	-0.127892	0	0	-0.439123	0.0231315	-0.0426977	0.57106	-0.418352	1.26326	0.539336	0.535031	0	0	0.220876	-0.30896	0.162707	0.573098	1.23138	0	0
30.08	0.210877	1.26022	1.46193	0.700928	0.12209	0.967089	0.816461	0.0273582	0.0653549	0.781263	-0.131195	0	0	0.797751	-0.196164	-0.110153	0.945772	-0.134747	0	0	-0.431914	0.0244426	-0.0447347	0.572524	-0.418258	1.27647	0.539818	0.540941	0	0	0.213331	-0.309908	0.16417	0.573898	1.22883	0	0
30.09	0.21368	1.26647	1.4594	0.700325	0.123979	0.971732	0.797302	0.0258397	0.0635885	0.762513	-0.140356	0	0	0.778206	-0.196979	-0.118394	0.927163	-0.142444	0	0	-0.425856	0.026288	-0.0472382	0.574786	-0.418324	1.29119	0.540516	0.548835	0	0	0.206051	-0.311033	0.16673	0.574854	1.22491	0	0
30.1	0.216039	1.27194	1.45734	0.699727	0.125878	0.976204	0.779193	0.0242733	0.0618614	0.744134	-0.148655	0	0	0.759326	-0.197532	-0.126511	0.908291	-0.149491	0	0	-0.418899	0.0277784	-0.0490664	0.575147	-0.418761	1.29988	0.541719	0.556139	0	0	0.199209	-0.311746	0.169269	0.575458	1.22175	0	0
30.11	0.217126	1.27659	1.45619	0.69917	0.127783	0.980525	0.762249	0.0224605	0.0598587	0.726021	-0.156983	0	0	0.740957	-0.197814	-0.134865	0.888954	-0.1563	0	0	-0.411145	0.0286611	-0.0500729	0.573749	-0.419123	1.30358	0.542915	0.56321	0	0	0.192962	-0.312345	0.172697	0.575658	1.21849	0	0
30.12	0.216114	1.27971	1.45654	0.698705	0.129637	0.984624	0.746889	0.0206595	0.0582848	0.707436	-0.164652	0	0	0.723788	-0.197681	-0.143289	0.868904	-0.16261	0	0	-0.401956	0.0286617	-0.0501216	0.570594	-0.419455	1.30251	0.54417	0.571522	0	0	0.187275	-0.312962	0.177068	0.575648	1.21488	0	0
30.13	0.215107	1.28245	1.45711	0.698186	0.131564	0.988573	0.731741	0.0190823	0.057462	0.688943	-0.166005	0	0	0.706812	-0.197003	-0.150889	0.848479	-0.16695	0	0	-0.392738	0.0288337	-0.0512718	0.568501	-0.419293	1.30322	0.545355	0.575921	0	0	0.179541	-0.309549	0.163029	0.575955	1.23272	0	0
30.14	0.214764	1.28697	1.45717	0.697685	0.133586	0.99258	0.714378	0.0176005	0.0568648	0.669859	-0.178077	0	0	0.688329	-0.195343	-0.156135	0.828716	-0.174246	0	0	-0.384072	0.0285212	-0.0480228	0.558174	-0.420915	1.28163	0.546922	0.604125	0	0	0.17881	-0.31576	0.197361	0.574719	1.2003	0	0
30.15	0.219631	1.29574	1.45213	0.697032	0.135448	0.996812	0.692339	0.0165026	0.0551845	0.650515	-0.189547	0	0	0.665757	-0.194399	-0.160892	0.809823	-0.180242	0	0	-0.379736	0.0343659	-0.0620824	0.588945	-0.417281	1.38073	0.548363	0.518574	0	0	0.160237	-0.313937	0.16962	0.580053	1.2156	0	0
30.16	0.221065	1.30054	1.4506	0.696434	0.137491	1.00061	0.674415	0.0146888	0.0533135	0.63116	-0.19696	0	0	0.64686	-0.192708	-0.165693	0.789497	-0.18599	0	0	-0.372141	0.03567	-0.063542	0.588342	-0.417598	1.38545	0.550323	0.521922	0	0	0.153748	-0.313967	0.170846	0.580484	1.2156	0	0
30.17	0.222573	1.30523	1.44915	0.695834	0.139553	1.00427	0.656632	0.012597	0.0509056	0.611883	-0.203926	0	0	0.627925	-0.190899	-0.170267	0.768677	-0.19164	0	0	-0.364407	0.0369802	-0.0650519	0.587055	-0.417995	1.38716	0.552452	0.525845	0	0	0.147466	-0.314003	0.172176	0.580884	1.21621	0	0
30.18	0.221259	1.30913	1.45055	0.695341	0.141646	1.00754	0.641333	0.0113651	0.0517899	0.595783	-0.209582	0	0	0.609979	-0.1886	-0.17507	0.748137	-0.196711	0	0	-0.354813	0.0373557	-0.0668414	0.584792	-0.41769	1.38733	0.553897	0.53165	0	0	0.140662	-0.314455	0.173613	0.58135	1.21713	0	0
30.19	0.221869	1.31389	1.44998	0.694711	0.143755	1.01092	0.623202	0.0080119	0.0471179	0.57581	-0.217354	0	0	0.590636	-0.186313	-0.179694	0.726706	-0.20233	0	0	-0.347104	0.038296	-0.0680396	0.582817	-0.417542	1.38625	0.555114	0.542607	0	0	0.135037	-0.31424	0.174911	0.581427	1.21901	0	0
30.2	0.220516	1.31853	1.45146	0.694138	0.145895	1.01405	0.606544	0.00533778	0.0449927	0.558464	-0.224084	0	0	0.57152	-0.183482	-0.184395	0.705481	-0.207635	0	0	-0.338823	0.0385598	-0.0694966	0.580245	-0.417154	1.38348	0.556246	0.55649	0	0	0.129411	-0.314546	0.176834	0.581331	1.22223	0	0
30.21	0.218609	1.32268	1.45327	0.693629	0.148054	1.01695	0.590702	0.00276179	0.0427162	0.541814	-0.223647	0	0	0.553419	-0.180298	-0.188067	0.685345	-0.210114	0	0	-0.329516	0.0386595	-0.0708743	0.579295	-0.417203	1.3869	0.558156	0.558517	0	0	0.123965	-0.314641	0.178886	0.580231	1.22465	0	0
30.22	0.21732	1.32753	1.45422	0.69318	0.150172	1.01983	0.573141	0.000291045	0.0393855	0.522855	-0.229987	0	0	0.534833	-0.176865	-0.190729	0.665424	-0.214348	0	0	-0.32154	0.0390394	-0.0728424	0.580851	-0.416278	1.3963	0.559112	0.565554	0	0	0.118163	-0.315057	0.180161	0.580088	1.22631	0	0
30.23	0.215913	1.33294	1.45534	0.692744	0.152279	1.02266	0.555462	-0.00222676	0.0359362	0.504714	-0.236946	0	0	0.51583	-0.173141	-0.19275	0.645466	-0.218951	0	0	-0.314376	0.0393122	-0.0747582	0.582073	-0.415116	1.4037	0.559902	0.574433	0	0	0.112843	-0.315595	0.181663	0.580104	1.2281	0	0
30.24	0.212625	1.33906	1.45831	0.692319	0.154363	1.02538	0.537716	-0.00494768	0.0333053	0.487623	-0.245215	0	0	0.495786	-0.168764	-0.194228	0.624411	-0.224666	0	0	-0.308017	0.0390089	-0.0770407	0.58293	-0.413578	1.40774	0.560451	0.583589	0	0	0.107628	-0.316672	0.183526	0.580542	1.23042	0	0
30.25	0.208261	1.34363	1.46228	0.691863	0.156417	1.02775	0.522675	-0.00761808	0.0306891	0.472658	-0.250658	0	0	0.478057	-0.164642	-0.196123	0.604805	-0.228773	0	0	-0.300294	0.0384341	-0.078639	0.582737	-0.412539	1.40995	0.561655	0.592624	0	0	0.10267	-0.317263	0.184547	0.580887	1.23325	0	0
30.26	0.260153	1.35513	1.40943	0.690138	0.158175	1.03356	0.482362	-0.0168592	0.00479739	0.479309	-0.233599	0	0	0.448449	-0.168207	-0.190614	0.575224	-0.2414	0	0	-0.316232	0.0490932	-0.0692569	0.573669	-0.418891	1.35017	0.56559	0.680114	0	0	0.110882	-0.306354	0.167615	0.578311	1.26165	0	0
30.27	0.20219	1.35466	1.46766	0.690978	0.160449	1.03239	0.490357	-0.0122032	0.025509	0.442141	-0.257495	0	0	0.440241	-0.156206	-0.198097	0.563987	-0.239575	0	0	-0.288703	0.0375175	-0.0809973	0.581278	-0.410749	1.40961	0.564338	0.633075	0	0	0.0944226	-0.316915	0.180358	0.581378	1.24815	0	0
30.28	0.262144	1.36636	1.40725	0.689158	0.162204	1.03806	0.447385	-0.0193438	-0.000962494	0.445256	-0.244448	0	0	0.411024	-0.16134	-0.193507	0.535735	-0.250433	0	0	-0.306183	0.0490154	-0.0703275	0.568868	-0.417855	1.33656	0.568487	0.718001	0	0	0.104296	-0.30528	0.16263	0.578624	1.27837	0	0
30.29	0.197649	1.36501	1.47154	0.690124	0.16436	1.03639	0.460146	-0.0160263	0.0204498	0.414104	-0.267214	0	0	0.404681	-0.148669	-0.200278	0.525769	-0.247886	0	0	-0.27788	0.0365115	-0.0817184	0.57666	-0.409566	1.39644	0.56707	0.667881	0	0	0.0876003	-0.316375	0.175253	0.582506	1.26452	0	0
30.3	0.268615	1.37866	1.40098	0.688263	0.166056	1.04211	0.411478	-0.0210163	-0.00708356	0.411914	-0.247992	0	0	0.373823	-0.154984	-0.194523	0.498021	-0.259703	0	0	-0.299275	0.0491441	-0.0706605	0.562863	-0.416842	1.31727	0.571754	0.761884	0	0	0.0985374	-0.303165	0.151032	0.580249	1.30093	0	0
30.31	0.27165	1.38507	1.39813	0.687814	0.167884	1.04395	0.393173	-0.0216901	-0.00989063	0.394618	-0.252971	0	0	0.355452	-0.151635	-0.194078	0.479805	-0.263772	0	0	-0.296367	0.049164	-0.0709192	0.561038	-0.416424	1.31176	0.573322	0.777535	0	0	0.0963268	-0.302751	0.147911	0.580705	1.30688	0	0
30.32	0.275163	1.39155	1.39501	0.68736	0.16964	1.04566	0.374771	-0.0222541	-0.0124239	0.377142	-0.257994	0	0	0.337467	-0.148406	-0.193464	0.46231	-0.267607	0	0	-0.293828	0.0492289	-0.071108	0.558981	-0.416332	1.30518	0.575134	0.791612	0	0	0.0945796	-0.302285	0.144792	0.58089	1.31236	0	0
30.33	0.279899	1.3978	1.39083	0.686934	0.171328	1.04721	0.356279	-0.0225971	-0.0149429	0.35868	-0.263449	0	0	0.320405	-0.145709	-0.193232	0.446065	-0.271131	0	0	-0.291387	0.0494442	-0.0712842	0.556775	-0.416255	1.29812	0.576806	0.804775	0	0	0.0930515	-0.301791	0.141458	0.580978	1.31748	0	0
30.34	0.286508	1.40381	1.38499	0.686529	0.172961	1.0486	0.338258	-0.0226982	-0.0180436	0.340657	-0.268837	0	0	0.304361	-0.14367	-0.193258	0.431305	-0.274354	0	0	-0.289184	0.0499032	-0.0715444	0.554528	-0.416073	1.29079	0.578212	0.817426	0	0	0.0916753	-0.301213	0.137477	0.581059	1.32199	0	0
30.35	0.292951	1.4099	1.37931	0.686087	0.174514	1.0499	0.320801	-0.0228398	-0.0197756	0.32387	-0.273645	0	0	0.288614	-0.141399	-0.192201	0.416952	-0.277362	0	0	-0.287665	0.0502636	-0.0716735	0.552379	-0.416127	1.28315	0.579623	0.829694	0	0	0.09066	-0.300402	0.132962	0.581131	1.32593	0	0
30.36	0.302216	1.41728	1.37069	0.685635	0.175824	1.05109	0.302942	-0.0229072	-0.0209685	0.308992	-0.271851	0	0	0.272762	-0.139773	-0.192234	0.405226	-0.277546	0	0	-0.28559	0.0531318	-0.0770164	0.568658	-0.415876	1.33434	0.581006	0.776665	0	0	0.0873497	-0.302665	0.138927	0.579776	1.31005	0	0
30.37	0.309424	1.42228	1.36425	0.685185	0.177153	1.05206	0.287446	-0.0228608	-0.0217055	0.293313	-0.27612	0	0	0.259911	-0.138126	-0.191449	0.39371	-0.279981	0	0	-0.284001	0.0534466	-0.076924	0.566052	-0.415988	1.32445	0.581877	0.787906	0	0	0.0867652	-0.301673	0.133923	0.579875	1.31347	0	0
